<svg id="Layer_1" data-name="Layer 1" xmlns="http://www.w3.org/2000/svg" width="64.76mm" height="56.48mm" viewBox="0 0 183.58 160.09">
  <polyline points="26.41 29.06 63.4 29.06 63.99 23.21 65.68 17.75 68.36 12.81 71.9 8.51 76.21 4.97 81.15 2.29 86.6 0.59 92.45 0 98.3 0.59 103.76 2.29 108.7 4.97 113 8.51 116.54 12.81 119.22 17.75 120.92 23.21 121.51 29.06 157.45 29.06 183.58 94.58 157.45 160.09 124.15 160.09 124.15 159.81 124.15 159.81 123.5 153.42 121.65 147.47 118.73 142.09 114.87 137.4 110.18 133.53 104.79 130.61 98.84 128.76 92.45 128.11 86.06 128.76 80.12 130.61 74.73 133.53 70.04 137.4 66.17 142.09 63.25 147.47 61.4 153.42 60.75 160.09 26.41 160.09 26.41 122.83 0 95.09 26.41 66.04 26.41 29.06" style="fill: none"/>
</svg>
